<?xml version="1.0" encoding="UTF-8" standalone="no"?>
<svg width="32" height="32" viewBox="0 0 32 32" fill="none" version="1.1" id="svg4" xmlns="http://www.w3.org/2000/svg" xmlns:svg="http://www.w3.org/2000/svg">
  <g clip-path="url(#clip0_3204_77627)" id="g4" transform="translate(-0.5)">
    <mask id="mask0_3204_77627" maskUnits="userSpaceOnUse" x="0" y="0" width="33" height="32">
      <path d="m 32.5,0 h -32 v 32 h 32 z" fill="#ffffff" id="path1"/>
    </mask>
    <g mask="url(#mask0_3204_77627)" id="g3">
      <path d="m 16.5,31 c 8.2843,0 15,-6.7157 15,-15 0,-8.28427 -6.7157,-15 -15,-15 -8.28427,0 -15,6.71573 -15,15 0,8.2843 6.71573,15 15,15 z" fill="#cdf564" stroke="#000000" stroke-width="2" id="path2" style="display:inline"/>
      <path style="display:inline;fill:#cccccc;fill-opacity:1;stroke-width:0.0442638" d="M 15.40167,29.978876 C 13.303491,29.777808 11.459423,29.228573 9.7770629,28.303651 9.1763571,27.973397 8.3026503,27.391225 7.7447284,26.949457 7.1605597,26.486907 6.016542,25.342179 5.5453739,24.748737 3.9763953,22.772591 2.9829587,20.45491 2.5997181,17.876543 2.4867973,17.116835 2.4861037,14.929988 2.5985336,14.142136 3.0310171,11.111509 4.3414003,8.4156446 6.4302523,6.2591034 8.8200911,3.7918221 11.916395,2.3242416 15.357475,2.0277952 c 0.819712,-0.070617 2.319453,-0.025456 3.11569,0.093822 3.089789,0.4628574 5.761615,1.8011913 7.935228,3.9748046 2.218914,2.2189137 3.551172,4.9273742 4.003506,8.1390682 0.09673,0.686811 0.111041,2.712134 0.0237,3.353791 -0.249253,1.831097 -0.689806,3.28476 -1.447185,4.775174 -1.183338,2.328637 -3.066383,4.345047 -5.286401,5.660806 -2.262568,1.340977 -4.675515,1.996516 -7.27157,1.97551 -0.48075,-0.0039 -0.943698,-0.01374 -1.028771,-0.0219 z" id="path27"/>
      <path d="m 19.094739,16.275956 q 0,0.771787 -0.270126,1.512703 -0.270125,0.733198 -0.771787,1.234859 -0.68689,0.679173 -1.535856,1.026477 -0.841248,0.347304 -2.099261,0.347304 h -1.844571 v 3.743168 H 9.6094753 V 12.648557 H 14.48717 q 1.095938,0 1.844571,0.192946 0.756351,0.185229 1.335192,0.563405 0.694608,0.455354 1.057348,1.165399 0.370458,0.710044 0.370458,1.705649 z m -3.063995,0.06946 q 0,-0.486226 -0.262408,-0.83353 -0.262407,-0.355022 -0.609711,-0.493944 -0.463073,-0.185229 -0.902991,-0.200665 -0.439919,-0.02315 -1.173117,-0.02315 h -0.509379 v 3.44217 h 0.848966 q 0.756351,0 1.242577,-0.09261 0.493944,-0.09262 0.825812,-0.370458 0.285561,-0.246972 0.409047,-0.586558 0.131204,-0.347304 0.131204,-0.841248 z" id="text4" style="font-weight:bold;font-size:15.8062px;font-family:Sans;-inkscape-font-specification:'Sans, Bold';fill:#000000;stroke-width:0.286505" transform="scale(1.149657,0.86982466)" aria-label="P"/>
    </g>
  </g>
  <defs id="defs4">
    <clipPath id="clip0_3204_77627">
      <rect width="32" height="32" fill="#ffffff" transform="translate(0.5)" id="rect4" x="0" y="0"/>
    </clipPath>
  </defs>
</svg>