<?xml version="1.0" standalone="no"?>
<!DOCTYPE svg PUBLIC "-//W3C//DTD SVG 20010904//EN"
 "http://www.w3.org/TR/2001/REC-SVG-20010904/DTD/svg10.dtd">
<svg version="1.0" xmlns="http://www.w3.org/2000/svg"
 width="64.000000pt" height="64.000000pt" viewBox="0 0 64.000000 64.000000"
 preserveAspectRatio="xMidYMid meet">
<metadata>
Created by potrace 1.16, written by Peter Selinger 2001-2019
</metadata>
<g transform="translate(0.000000,64.000000) scale(0.100000,-0.100000)"
fill="#000000" stroke="none">
<path d="M0 320 l0 -320 320 0 320 0 0 320 0 320 -142 -1 c-79 -1 -177 -5
-218 -9 l-75 -7 73 -1 c71 -2 84 -9 64 -38 -7 -11 -65 -44 -77 -44 -3 0 -3 5
1 12 4 7 3 8 -5 4 -6 -4 -9 -11 -6 -16 3 -5 -3 -14 -14 -19 -26 -14 -34 -14
-25 2 4 7 3 9 -2 4 -5 -5 -9 -14 -9 -19 0 -6 -6 -13 -14 -16 -9 -3 -11 0 -6 8
5 9 4 11 -4 6 -6 -4 -9 -11 -6 -16 3 -5 -4 -14 -16 -20 -26 -14 -73 -5 -62 13
4 7 -1 6 -13 -3 -30 -22 -30 -24 -9 -17 19 7 19 7 1 -8 -26 -20 -36 -10 -36
33 1 31 6 41 35 59 19 12 35 18 35 13 0 -5 -13 -16 -30 -25 -16 -9 -30 -18
-30 -21 0 -2 13 2 30 11 28 14 54 47 45 57 -2 2 12 11 31 20 35 16 35 16 18
-3 -16 -18 -16 -19 -1 -13 9 3 17 9 18 13 0 3 2 14 4 24 3 15 -7 17 -96 17
l-99 0 0 -320z m413 273 c-7 -2 -19 -2 -25 0 -7 3 -2 5 12 5 14 0 19 -2 13 -5z
m5 -30 c-2 -10 -7 -21 -13 -25 -21 -16 21 -29 78 -24 54 4 57 3 57 -19 0 -19
-7 -24 -39 -30 -41 -7 -80 -29 -70 -40 4 -3 36 -11 71 -17 l64 -10 17 -67 c15
-61 15 -56 2 32 -3 17 3 5 12 -27 15 -55 15 -60 0 -71 -9 -7 -14 -15 -10 -18
3 -4 -8 -5 -25 -2 -21 2 -31 -1 -29 -8 1 -7 -7 -12 -19 -11 -16 0 -20 -5 -16
-23 3 -19 1 -22 -12 -17 -10 4 -15 13 -12 20 3 8 0 11 -9 7 -8 -3 -12 -9 -10
-14 8 -11 -134 -82 -151 -75 -8 3 -13 0 -11 -6 1 -6 -3 -12 -8 -14 -16 -6 -16
36 1 67 16 31 20 64 5 40 -7 -10 -20 -12 -50 -7 -33 5 -41 3 -41 -9 0 -8 -7
-15 -15 -15 -10 0 -15 7 -13 18 2 12 -6 19 -32 23 -39 7 34 3 105 -6 22 -3 34
-2 27 1 -7 3 -50 11 -95 18 l-82 11 -12 50 c-6 28 -12 63 -12 79 -1 28 0 29
13 11 13 -19 14 -18 9 5 -4 23 5 30 131 93 75 37 139 67 142 67 3 0 2 -5 -2
-12 -4 -7 -3 -8 4 -4 16 10 15 5 -8 -54 -22 -56 -19 -68 5 -17 l15 32 -4 -35
c-4 -32 -4 -33 6 -10 5 14 14 33 19 43 6 11 5 17 -1 17 -5 0 -10 -5 -10 -12 0
-6 -2 -9 -5 -6 -3 3 -1 17 4 32 7 17 7 26 1 26 -6 0 -10 7 -10 15 0 8 9 15 20
15 14 0 20 -6 18 -17z m-391 -85 c-3 -7 -5 -2 -5 12 0 14 2 19 5 13 2 -7 2
-19 0 -25z m478 -33 c-39 -13 -39 -13 -10 -15 17 -1 39 -5 50 -10 13 -6 2 -7
-30 -3 -72 8 -87 19 -45 31 52 15 81 13 35 -3z m-431 -155 c4 -30 3 -36 -3
-20 -12 37 -22 109 -12 85 5 -11 11 -40 15 -65z m520 -204 c9 -21 16 -40 16
-42 0 -2 -15 -5 -32 -5 l-33 -1 30 -8 30 -8 -34 1 c-31 2 -36 6 -44 37 -10 42
-22 56 -32 39 -5 -8 -4 -10 3 -5 7 4 12 3 12 -3 0 -5 3 -18 6 -28 5 -16 4 -16
-5 -2 -10 15 -17 14 -83 -12 -47 -18 -89 -28 -118 -27 l-45 1 40 4 c43 4 139
32 132 39 -2 2 -23 -3 -47 -11 -56 -20 -120 -20 -120 -1 0 10 13 16 38 18 20
2 36 7 34 12 -2 5 11 15 28 23 39 16 43 16 34 1 -4 -7 -3 -8 5 -4 6 4 9 11 6
16 -3 5 3 14 14 19 25 14 34 14 26 1 -11 -18 1 -11 21 12 19 22 19 23 -1 8
-18 -14 -19 -14 -7 2 7 9 24 15 38 13 19 -2 28 4 36 24 11 25 11 24 23 -24 7
-27 20 -67 29 -89z m-64 103 c0 -6 -4 -7 -10 -4 -5 3 -10 11 -10 16 0 6 5 7
10 4 6 -3 10 -11 10 -16z m60 -31 c0 -9 9 -37 20 -62 10 -25 17 -46 14 -46 -2
0 -13 19 -23 43 -21 49 -36 120 -21 97 5 -8 10 -23 10 -32z m-324 -9 c-9 -19
-15 -29 -16 -22 0 15 22 64 27 60 2 -2 -3 -19 -11 -38z m-69 15 c-3 -3 -12 -4
-19 -1 -8 3 -5 6 6 6 11 1 17 -2 13 -5z m121 -81 c-10 -2 -26 -2 -35 0 -10 3
-2 5 17 5 19 0 27 -2 18 -5z"/>
<path d="M505 500 c-3 -6 1 -7 9 -4 18 7 21 14 7 14 -6 0 -13 -4 -16 -10z"/>
<path d="M438 493 c12 -2 30 -2 40 0 9 3 -1 5 -23 4 -22 0 -30 -2 -17 -4z"/>
<path d="M298 323 c6 -2 18 -2 25 0 6 3 1 5 -13 5 -14 0 -19 -2 -12 -5z"/>
<path d="M520 270 c34 -11 60 -11 35 0 -11 5 -29 8 -40 8 -16 0 -15 -2 5 -8z"/>
<path d="M460 80 c-9 -6 -10 -10 -3 -10 6 0 15 5 18 10 8 12 4 12 -15 0z"/>
<path d="M130 480 c-23 -7 -23 -8 -3 -9 12 -1 25 4 28 9 3 6 5 10 3 9 -2 -1
-14 -5 -28 -9z"/>
</g>
</svg>
