<?xml version="1.0" standalone="no"?>
<!DOCTYPE svg PUBLIC "-//W3C//DTD SVG 20010904//EN"
 "http://www.w3.org/TR/2001/REC-SVG-20010904/DTD/svg10.dtd">
<svg version="1.0" xmlns="http://www.w3.org/2000/svg"
 width="64.000000pt" height="64.000000pt" viewBox="0 0 64.000000 64.000000"
 preserveAspectRatio="xMidYMid meet">
<metadata>
Created by potrace 1.16, written by Peter Selinger 2001-2019
</metadata>
<g transform="translate(0.000000,64.000000) scale(0.100000,-0.100000)"
fill="#000000" stroke="none">
<path d="M0 320 l0 -320 320 0 c304 0 320 1 320 18 0 15 -12 21 -54 29 -30 5
-53 6 -50 2 6 -11 -368 -10 -385 0 -7 5 -10 15 -7 22 4 8 0 5 -8 -5 -9 -11
-16 -15 -16 -9 0 11 32 43 44 43 4 0 4 -5 0 -12 -4 -7 -3 -8 5 -4 6 4 9 11 6
16 -3 5 8 16 24 25 36 18 45 19 35 3 -4 -7 -3 -8 5 -4 6 4 9 11 6 16 -7 11 52
43 68 36 7 -2 4 -5 -5 -5 -9 -1 -19 -5 -22 -9 -2 -4 21 -3 52 3 56 10 56 10
22 16 l-35 6 43 2 c32 1 41 -2 36 -11 -4 -7 12 5 34 27 l41 40 -17 57 c-22 70
-27 75 -49 56 -10 -9 -28 -19 -41 -23 -13 -4 -22 -9 -19 -11 2 -3 16 0 31 5
39 15 32 4 -9 -13 -26 -11 -35 -21 -35 -39 0 -13 -13 -36 -32 -53 -17 -16 -28
-23 -24 -17 10 17 -52 16 -119 -2 l-50 -14 45 4 c44 4 44 4 12 -6 -48 -15 -65
-8 -69 26 -4 27 -26 122 -39 168 -4 12 1 17 18 18 19 1 20 2 4 6 -14 4 -15 7
-6 13 9 6 8 13 -5 34 -10 14 -15 26 -12 26 3 0 17 -19 31 -42 14 -24 26 -39
26 -34 0 5 -10 24 -21 43 -25 41 -16 59 22 43 22 -10 23 -10 1 -6 -12 2 -20 1
-17 -4 6 -10 45 -20 43 -11 -3 25 6 30 12 6 l8 -30 1 29 c1 25 4 28 26 24 30
-6 33 -2 37 45 2 43 8 45 34 15 19 -22 19 -23 -1 -8 -20 15 -20 14 -1 -8 11
-12 21 -22 22 -22 7 0 44 80 44 95 0 8 5 15 10 15 6 0 10 -7 10 -15 0 -25 40
-96 50 -90 6 4 10 8 10 11 0 3 -5 2 -11 -2 -7 -4 -10 -1 -7 7 3 8 10 14 16 14
6 0 17 7 24 15 11 12 10 12 -7 0 -20 -15 -20 -14 -1 8 25 28 35 15 37 -48 l2
-45 7 50 c5 36 7 41 8 19 1 -18 9 -34 17 -38 9 -3 15 -19 16 -38 l1 -33 7 30
6 30 17 -35 c18 -39 60 -236 55 -262 -5 -27 -11 -29 -47 -17 -29 10 -34 10
-44 -7 -15 -27 -16 -53 0 -47 15 6 76 -25 70 -35 -2 -4 3 -8 12 -8 9 -1 25 -4
35 -9 16 -7 17 10 17 274 l0 281 -320 0 -320 0 0 -320z m389 235 c0 -5 -6 1
-14 15 -8 14 -14 30 -14 35 0 6 6 -1 14 -15 8 -14 14 -29 14 -35z m-81 20 c-6
-14 -13 -23 -15 -21 -5 5 15 46 22 46 3 0 -1 -11 -7 -25z m-88 -44 c0 -26 -3
-28 -27 -22 -26 5 -26 6 -5 9 14 2 22 10 22 23 0 10 2 19 5 19 3 0 5 -13 5
-29z m360 -115 c0 -26 -6 -18 -14 19 -5 22 -4 26 4 15 5 -8 10 -24 10 -34z
m-515 -76 c10 -46 0 -36 -14 14 -5 22 -6 35 -2 30 5 -5 12 -25 16 -44z m551
-85 c7 -48 -2 -44 -11 5 -3 19 -10 51 -15 70 -6 19 -10 42 -9 50 1 19 27 -73
35 -125z m-176 95 c0 -5 -7 -10 -16 -10 -8 0 -12 5 -9 10 3 6 10 10 16 10 5 0
9 -4 9 -10z m19 -70 c11 -32 10 -36 -21 -65 l-33 -30 28 31 c27 30 27 31 12
75 -9 24 -12 39 -7 34 5 -6 14 -26 21 -45z m-371 -55 c0 -16 -2 -15 -8 5 -4
14 -8 36 -8 50 0 22 1 22 8 -5 4 -16 8 -39 8 -50z m440 -200 c7 -7 -363 -5
-375 3 -6 4 75 6 180 4 105 -1 192 -4 195 -7z m82 5 c20 -6 21 -8 5 -8 -11 0
-33 4 -50 8 -27 7 -27 8 -5 8 14 0 36 -4 50 -8z"/>
<path d="M307 390 c13 -14 74 -20 66 -7 -3 5 -15 7 -26 5 -12 -1 -29 2 -37 6
-12 7 -13 6 -3 -4z"/>
<path d="M235 332 c-4 -9 -9 -30 -10 -47 -2 -16 -1 -23 2 -14 2 11 11 15 24
12 14 -4 19 0 19 17 0 12 -6 28 -14 35 -12 12 -15 12 -21 -3z m12 -24 c2 -17
0 -19 -7 -8 -5 8 -6 18 -4 22 8 12 10 10 11 -14z"/>
<path d="M282 304 c-2 -19 -1 -34 2 -34 7 0 13 61 6 65 -3 2 -7 -12 -8 -31z"/>
<path d="M324 293 c-4 -21 -14 -47 -22 -58 l-16 -20 21 20 c18 18 42 95 29 95
-3 0 -8 -17 -12 -37z"/>
<path d="M482 180 c-29 -52 -22 -52 12 0 14 22 23 40 19 40 -5 0 -18 -18 -31
-40z"/>
<path d="M538 208 c5 -5 16 -8 23 -6 8 3 3 7 -10 11 -17 4 -21 3 -13 -5z"/>
</g>
</svg>
