<?xml version="1.0" standalone="no"?>
<!DOCTYPE svg PUBLIC "-//W3C//DTD SVG 20010904//EN"
 "http://www.w3.org/TR/2001/REC-SVG-20010904/DTD/svg10.dtd">
<svg version="1.0" xmlns="http://www.w3.org/2000/svg"
 width="64.000000pt" height="64.000000pt" viewBox="0 0 64.000000 64.000000"
 preserveAspectRatio="xMidYMid meet">
<metadata>
Created by potrace 1.16, written by Peter Selinger 2001-2019
</metadata>
<g transform="translate(0.000000,64.000000) scale(0.100000,-0.100000)"
fill="#000000" stroke="none">
<path d="M0 320 l0 -320 319 0 320 0 1 320 0 320 -320 0 -320 0 0 -320z m365
268 c16 -7 21 -14 14 -18 -7 -5 -5 -9 6 -13 9 -4 13 -3 10 3 -3 6 -1 10 5 10
6 0 8 5 4 11 -4 7 -1 10 7 7 8 -3 13 -11 11 -17 -1 -7 3 -9 9 -6 6 4 33 -3 59
-15 45 -21 49 -26 56 -69 4 -25 8 -48 9 -51 1 -3 14 -60 30 -127 16 -68 31
-121 33 -118 4 4 -27 156 -45 220 -3 11 -2 17 1 14 11 -11 47 -171 51 -227 3
-49 1 -55 -34 -92 -31 -33 -44 -40 -72 -39 -34 2 -34 2 -4 6 54 8 45 18 -18
19 -34 1 -52 -1 -39 -3 26 -5 30 -23 5 -23 -57 1 -62 8 -62 84 0 39 0 91 0
114 0 24 5 54 11 65 7 12 11 27 10 33 -1 6 6 18 15 25 17 13 17 13 3 -6 -14
-18 -14 -19 2 -7 10 8 16 19 15 25 -1 7 6 11 17 9 13 -3 17 1 13 12 -4 10 1
20 13 26 14 7 20 7 20 0 0 -5 -4 -10 -9 -10 -5 0 -7 -10 -3 -22 5 -21 6 -21
13 -2 11 29 10 38 -6 60 -13 16 -14 16 -9 2 4 -12 1 -18 -10 -18 -9 0 -16 6
-16 14 0 8 -4 18 -10 21 -6 3 -7 -1 -4 -10 4 -10 -3 -26 -16 -41 -13 -13 -19
-24 -14 -24 15 -1 -40 -29 -58 -30 -11 0 -15 -6 -11 -20 3 -12 -2 -30 -13 -43
-19 -21 -19 -21 1 -7 11 8 3 -4 -18 -27 -24 -25 -34 -42 -26 -45 9 -3 9 -9 0
-27 -7 -12 -10 -25 -7 -29 3 -3 6 1 6 9 0 11 2 11 8 1 6 -9 12 -5 20 13 10 21
10 25 0 19 -9 -6 -9 -3 1 9 7 9 20 17 27 17 14 0 19 31 16 90 -1 23 -1 23 7 4
5 -12 5 -43 -1 -74 -7 -37 -6 -61 1 -78 13 -26 4 -119 -11 -128 -13 -8 -99 17
-93 27 3 4 0 11 -6 15 -8 4 -9 3 -5 -4 10 -16 -9 -15 -44 3 -17 9 -30 13 -30
10 0 -2 17 -13 38 -24 20 -11 34 -20 31 -21 -5 0 -140 59 -146 64 -1 0 -20 80
-42 176 l-41 175 22 30 c16 21 17 26 4 16 -40 -33 -38 -48 38 -364 3 -11 2
-16 -2 -12 -4 3 -24 79 -44 168 -37 159 -37 163 -19 187 10 14 33 35 52 48 31
22 42 23 151 20 65 -2 118 -2 118 0 0 1 -10 7 -22 12 -13 5 -18 9 -11 9 7 1
24 -4 38 -11z m204 -122 c5 -22 6 -35 2 -30 -9 9 -27 83 -18 74 3 -3 10 -23
16 -44z m-89 -19 c0 -2 -10 -12 -22 -23 l-23 -19 19 23 c18 21 26 27 26 19z
m-11 -403 c10 -9 -45 -3 -59 6 -11 7 -5 8 20 4 19 -4 37 -8 39 -10z"/>
<path d="M113 560 c-34 -14 -28 -21 8 -8 32 11 168 6 202 -7 9 -4 17 -3 17 2
0 11 2 11 -115 18 -50 3 -100 1 -112 -5z"/>
<path d="M460 546 c0 -2 7 -7 16 -10 8 -3 12 -2 9 4 -6 10 -25 14 -25 6z"/>
<path d="M390 526 c0 -3 14 -12 30 -21 17 -9 30 -13 30 -11 0 3 -13 12 -30 21
-16 9 -30 13 -30 11z"/>
<path d="M500 526 c0 -2 7 -7 16 -10 8 -3 12 -2 9 4 -6 10 -25 14 -25 6z"/>
<path d="M164 498 c-4 -7 -4 -10 1 -6 4 4 15 2 24 -5 14 -11 14 -10 2 6 -16
20 -18 21 -27 5z"/>
<path d="M141 464 c0 -11 3 -14 6 -6 3 7 2 16 -1 19 -3 4 -6 -2 -5 -13z"/>
<path d="M225 458 c19 -31 28 -36 19 -13 -4 8 -1 15 5 15 10 0 15 -13 13 -31
-1 -4 11 -17 25 -30 14 -13 23 -18 19 -11 -8 14 10 17 19 2 3 -5 11 -10 17
-10 7 0 7 4 -1 13 -6 8 -9 16 -6 19 3 3 -2 11 -12 19 -11 9 -14 10 -9 2 4 -7
3 -13 -2 -13 -10 0 -48 40 -44 46 7 12 0 14 -16 5 -13 -7 -23 -6 -32 2 -7 7
-5 0 5 -15z m66 -45 c13 -16 12 -17 -3 -4 -17 13 -22 21 -14 21 2 0 10 -8 17
-17z"/>
<path d="M357 398 c6 -10 35 -10 51 0 8 5 -1 8 -22 8 -19 -1 -32 -4 -29 -8z"/>
<path d="M526 383 c-6 -14 -5 -15 5 -6 7 7 10 15 7 18 -3 3 -9 -2 -12 -12z"/>
<path d="M300 280 c-23 -7 -23 -8 -3 -9 12 -1 25 4 28 9 3 6 5 10 3 9 -2 -1
-14 -5 -28 -9z"/>
<path d="M261 264 c0 -11 3 -14 6 -6 3 7 2 16 -1 19 -3 4 -6 -2 -5 -13z"/>
<path d="M592 125 c-12 -19 -20 -35 -17 -35 7 0 47 61 42 66 -2 3 -14 -11 -25
-31z"/>
<path d="M144 136 c11 -9 24 -16 30 -16 12 0 7 5 -24 19 -24 11 -24 11 -6 -3z"/>
<path d="M338 78 c6 -6 18 -8 28 -6 14 3 12 5 -9 10 -19 3 -25 2 -19 -4z"/>
</g>
</svg>
