<?xml version="1.0" standalone="no"?>
<!DOCTYPE svg PUBLIC "-//W3C//DTD SVG 20010904//EN"
 "http://www.w3.org/TR/2001/REC-SVG-20010904/DTD/svg10.dtd">
<svg version="1.0" xmlns="http://www.w3.org/2000/svg"
 width="64.000000pt" height="64.000000pt" viewBox="0 0 64.000000 64.000000"
 preserveAspectRatio="xMidYMid meet">
<metadata>
Created by potrace 1.16, written by Peter Selinger 2001-2019
</metadata>
<g transform="translate(0.000000,64.000000) scale(0.100000,-0.100000)"
fill="#000000" stroke="none">
<path d="M0 321 l0 -321 320 0 c227 0 320 3 320 11 0 21 -59 135 -81 154 -12
12 -7 -1 15 -34 20 -29 36 -58 36 -65 0 -6 -14 12 -30 39 -16 28 -42 66 -57
85 -25 32 -25 33 -4 15 l24 -20 -15 25 c-8 14 -14 31 -13 38 2 6 3 21 4 32 0
11 7 20 14 20 13 0 66 -52 68 -67 1 -5 3 -12 5 -18 2 -5 9 -37 17 -70 12 -56
13 -40 16 218 l2 277 -85 0 c-72 0 -84 -2 -82 -16 1 -9 11 -21 22 -26 18 -9
18 -9 0 6 -11 9 -16 16 -10 16 20 0 31 -17 42 -68 15 -66 15 -102 1 -102 -19
0 -50 21 -44 30 3 5 0 12 -6 16 -8 5 -9 3 -4 -6 5 -8 3 -11 -5 -8 -7 2 -15 19
-17 38 -2 19 -8 39 -13 44 -6 6 -6 -2 0 -22 5 -20 5 -30 -1 -27 -5 4 -9 13 -9
21 0 8 -7 14 -16 14 -9 0 -12 5 -8 13 5 8 2 8 -9 -2 -9 -7 -17 -21 -17 -30 0
-9 -6 -23 -12 -31 -11 -12 -10 -12 4 -1 9 7 19 22 21 34 l4 22 2 -22 c1 -26
-50 -72 -91 -80 -15 -3 -31 -10 -34 -14 -3 -5 -10 -9 -16 -9 -6 0 -5 7 3 18
11 14 10 13 -9 -2 -14 -13 -22 -30 -22 -52 0 -18 -5 -36 -10 -39 -6 -3 -10
-15 -10 -27 0 -15 -4 -18 -17 -13 -10 4 -23 8 -29 8 -6 0 -9 9 -6 21 5 19 6
19 13 0 6 -14 8 -15 8 -3 1 9 -7 23 -17 33 -18 15 -20 15 -35 -2 -23 -25 -21
-37 8 -80 14 -20 25 -32 25 -27 0 6 -9 21 -20 35 -11 14 -19 34 -19 45 l1 20
5 -20 c3 -11 15 -33 27 -50 11 -16 21 -33 21 -37 0 -3 4 -10 9 -15 5 -4 6 -3
2 4 -5 10 1 11 24 6 25 -5 37 0 60 22 34 32 39 31 46 -16 5 -29 -1 -42 -39
-91 -40 -51 -53 -76 -71 -130 -3 -12 -15 -18 -33 -17 l-28 1 30 8 30 8 -31 1
-30 1 -40 173 c-31 128 -38 177 -31 192 6 11 12 35 13 54 2 19 7 38 12 43 10
10 10 -33 -1 -49 -5 -7 -6 -13 -3 -13 12 0 80 106 91 142 l12 42 1 -73 c1 -41
3 -75 5 -77 2 -2 17 11 33 28 16 18 21 26 12 19 -25 -19 -23 2 2 24 11 10 21
30 21 44 2 24 2 25 6 3 3 -13 -1 -31 -9 -40 -12 -15 -11 -16 5 -3 9 7 17 26
17 42 l0 29 87 0 c168 0 74 10 -150 16 l-227 6 0 -321z m180 284 c0 -23 -39
-102 -58 -117 -15 -11 -15 -10 1 14 9 15 17 45 17 66 0 21 3 42 7 45 12 13 33
7 33 -8z m-53 -47 c-2 -13 -4 -5 -4 17 -1 22 1 32 4 23 2 -10 2 -28 0 -40z
m95 -28 c3 -17 1 -33 -4 -36 -4 -3 -8 11 -8 30 0 44 6 47 12 6z m336 -35 c0
-16 -2 -15 -8 5 -4 14 -8 34 -8 45 0 16 2 15 8 -5 4 -14 8 -34 8 -45z m-479
-19 c-5 -20 -8 -40 -5 -45 3 -5 -1 -14 -9 -21 -9 -8 -12 -22 -8 -43 3 -18 3
-29 -1 -26 -11 10 -15 179 -5 179 6 0 7 -6 3 -12 -4 -8 -3 -10 2 -5 5 5 10 13
10 18 3 22 5 23 14 8 6 -10 5 -30 -1 -53z m-41 -36 c0 -9 -3 -7 -8 5 -5 11 -8
29 -8 40 0 16 2 15 8 -5 4 -14 8 -32 8 -40z m392 -7 c0 -10 9 -31 20 -48 16
-24 20 -45 18 -110 -1 -70 -2 -74 -8 -35 l-7 45 -1 -47 c-2 -35 -6 -48 -17
-48 -11 0 -16 12 -17 43 l-1 42 -4 -42 c-3 -29 -9 -43 -19 -43 -10 0 -14 14
-16 53 l-1 52 -7 -55 -7 -55 -3 55 c-3 68 -3 64 5 124 5 34 9 45 16 35 6 -10
10 -6 15 19 7 33 34 45 34 15z m-194 -88 c-10 -19 -16 -24 -16 -13 0 9 5 20
10 23 6 3 11 23 12 43 1 34 2 35 5 7 2 -17 -3 -44 -11 -60z m233 41 c13 -20
20 -48 20 -72 l-2 -39 -6 45 c-4 25 -15 57 -25 73 -10 15 -16 27 -13 27 3 0
15 -15 26 -34z m-314 -16 c3 -5 -1 -10 -10 -10 -9 0 -13 5 -10 10 3 6 8 10 10
10 2 0 7 -4 10 -10z m195 -30 c-4 -23 -10 -44 -14 -47 -6 -6 1 46 10 75 8 27
11 9 4 -28z m-224 -285 c-3 -11 -67 250 -65 268 1 7 16 -49 35 -123 18 -74 32
-139 30 -145z m74 245 c8 -5 11 -10 5 -10 -5 0 -17 5 -25 10 -8 5 -10 10 -5
10 6 0 17 -5 25 -10z m140 -54 c0 -12 -20 -48 -43 -78 -24 -31 -50 -70 -57
-88 -7 -17 -15 -29 -17 -26 -7 7 27 68 69 121 29 37 39 57 36 77 -3 15 -1 25
4 22 4 -3 8 -15 8 -28z m161 3 c-5 -13 -10 -19 -10 -12 -1 15 10 45 15 40 3
-2 0 -15 -5 -28z m126 -61 c-3 -7 -5 -2 -5 12 0 14 2 19 5 13 2 -7 2 -19 0
-25z m-220 -14 c-3 -3 -12 -4 -19 -1 -8 3 -5 6 6 6 11 1 17 -2 13 -5z m40 0
c-3 -3 -12 -4 -19 -1 -8 3 -5 6 6 6 11 1 17 -2 13 -5z m-14 -41 c-7 -2 -21 -2
-30 0 -10 3 -4 5 12 5 17 0 24 -2 18 -5z m-69 -46 c-10 -13 -7 -10 8 5 29 29
78 38 78 15 0 -8 12 -24 28 -38 l27 -24 -22 26 c-13 14 -23 29 -23 34 0 4 11
-5 24 -20 14 -16 23 -32 20 -37 -8 -12 -164 -10 -164 3 0 5 -6 7 -12 3 -7 -5
1 8 17 27 17 20 32 34 34 32 3 -2 -4 -13 -15 -26z m94 -64 c-21 -2 -57 -2 -80
0 -24 2 -7 4 37 4 44 0 63 -2 43 -4z"/>
<path d="M310 470 c-9 -6 -10 -10 -3 -10 6 0 15 5 18 10 8 12 4 12 -15 0z"/>
<path d="M270 265 c-6 -8 -10 -19 -8 -24 1 -6 8 1 15 14 13 28 11 31 -7 10z"/>
<path d="M556 267 c3 -10 9 -15 12 -12 3 3 0 11 -7 18 -10 9 -11 8 -5 -6z"/>
<path d="M228 233 c7 -3 16 -2 19 1 4 3 -2 6 -13 5 -11 0 -14 -3 -6 -6z"/>
</g>
</svg>
