<?xml version="1.0" standalone="no"?>
<!DOCTYPE svg PUBLIC "-//W3C//DTD SVG 20010904//EN"
 "http://www.w3.org/TR/2001/REC-SVG-20010904/DTD/svg10.dtd">
<svg version="1.0" xmlns="http://www.w3.org/2000/svg"
 width="64.000000pt" height="64.000000pt" viewBox="0 0 64.000000 64.000000"
 preserveAspectRatio="xMidYMid meet">
<metadata>
Created by potrace 1.16, written by Peter Selinger 2001-2019
</metadata>
<g transform="translate(0.000000,64.000000) scale(0.100000,-0.100000)"
fill="#000000" stroke="none">
<path d="M0 320 l0 -320 320 0 c207 0 320 4 320 10 0 6 -21 11 -47 12 l-48 1
50 7 50 7 -47 1 c-27 1 -48 7 -48 13 0 5 -6 7 -12 3 -10 -6 -10 -5 -1 7 9 11
5 27 -16 74 -28 61 -50 144 -31 115 5 -8 10 -22 10 -31 0 -9 12 -43 27 -75 14
-32 26 -64 26 -71 0 -6 4 -10 8 -7 5 3 -3 30 -17 62 -44 97 -54 152 -26 152
13 0 14 -2 4 -9 -11 -7 -11 -9 2 -14 9 -4 15 -1 13 5 -1 6 4 13 12 16 8 3 11
0 7 -7 -5 -7 -1 -9 9 -4 12 4 13 8 5 13 -7 4 -10 12 -6 18 3 6 1 14 -5 18 -8
4 -9 3 -5 -4 13 -21 -12 -13 -44 14 -17 15 -29 33 -26 40 3 7 0 16 -6 20 -7 4
-8 3 -4 -4 5 -8 -2 -12 -21 -11 -25 0 -26 1 -8 9 19 8 19 9 -2 9 -27 1 -28 9
-8 47 16 32 19 50 8 57 -5 3 -8 -8 -9 -25 -1 -16 -7 -35 -13 -41 -10 -9 -10
-6 -2 16 12 30 7 47 -11 47 -7 0 -9 -17 -5 -51 4 -29 3 -49 -1 -45 -3 4 -9 31
-12 59 l-6 52 -5 -52 c-2 -32 0 -49 6 -45 6 3 4 -2 -4 -12 -10 -12 -22 -15
-41 -11 -26 6 -28 4 -33 -40 -2 -26 -10 -52 -17 -58 -10 -9 -11 -9 -6 1 10 16
25 124 17 116 -3 -3 -11 -31 -16 -62 -11 -55 -10 -59 19 -99 16 -24 31 -43 34
-43 2 0 -3 10 -12 22 -22 32 -37 58 -33 58 2 0 17 -19 34 -42 30 -42 30 -45
22 -108 -5 -36 -11 -69 -14 -75 -6 -13 5 104 12 129 3 11 1 16 -5 12 -5 -3
-13 -40 -17 -81 l-7 -75 -88 0 -87 0 -18 83 c-16 75 -16 87 -2 133 12 42 13
51 1 51 -7 0 -11 -4 -8 -9 3 -5 0 -30 -7 -57 -10 -41 -10 -59 5 -116 9 -37 15
-69 12 -72 -2 -2 -12 30 -22 71 -15 64 -16 81 -5 117 12 40 12 42 -18 73 -38
39 -39 58 -5 85 29 23 49 28 38 9 -4 -7 -3 -8 5 -4 6 4 9 11 6 16 -3 4 2 13
10 20 13 11 14 10 9 -6 -5 -16 -4 -16 5 -4 6 8 11 23 11 33 0 9 5 17 10 17 6
0 10 10 11 23 0 21 1 21 8 2 5 -13 3 -23 -6 -30 -10 -8 -8 -10 10 -10 22 0 22
2 11 35 -7 19 -18 34 -24 32 -18 -4 8 36 35 54 48 31 75 2 75 -80 0 -22 3 -36
7 -32 4 4 6 24 4 45 -1 22 2 42 8 45 7 5 9 -4 6 -26 -4 -29 -4 -30 4 -8 8 23
9 22 12 -15 2 -37 2 -38 6 -8 2 17 -3 46 -12 62 -17 33 -29 42 -18 14 4 -11 3
-14 -5 -9 -7 4 -12 16 -12 27 0 19 5 20 123 17 l122 -3 2 -25 2 -25 -8 25 c-6
15 -9 19 -10 8 -1 -15 29 -150 88 -398 l28 -115 2 275 2 275 -320 2 -321 2 0
-319z m599 0 c-1 -8 -14 37 -30 100 -15 63 -28 122 -27 130 0 8 13 -37 29
-100 16 -63 28 -122 28 -130z m29 -125 c0 -16 -2 -15 -8 5 -4 14 -8 34 -8 45
0 16 2 15 8 -5 4 -14 8 -34 8 -45z m-356 -172 c-23 -2 -61 -2 -85 0 -23 2 -4
4 43 4 47 0 66 -2 42 -4z"/>
<path d="M227 583 c-3 -5 5 -8 18 -8 13 0 21 3 18 8 -2 4 -10 7 -18 7 -8 0
-16 -3 -18 -7z"/>
<path d="M195 559 c-4 -6 -5 -12 -2 -15 2 -3 7 2 10 11 7 17 1 20 -8 4z"/>
<path d="M67 383 c-14 -13 -6 -40 16 -59 l22 -19 -19 22 c-11 13 -16 31 -13
43 5 21 4 24 -6 13z"/>
</g>
</svg>
