<?xml version="1.0" standalone="no"?>
<!DOCTYPE svg PUBLIC "-//W3C//DTD SVG 20010904//EN"
 "http://www.w3.org/TR/2001/REC-SVG-20010904/DTD/svg10.dtd">
<svg version="1.0" xmlns="http://www.w3.org/2000/svg"
 width="64.000000pt" height="64.000000pt" viewBox="0 0 64.000000 64.000000"
 preserveAspectRatio="xMidYMid meet">
<metadata>
Created by potrace 1.16, written by Peter Selinger 2001-2019
</metadata>
<g transform="translate(0.000000,64.000000) scale(0.100000,-0.100000)"
fill="#000000" stroke="none">
<path d="M1 320 l-2 -320 321 0 320 0 0 320 0 320 -82 -1 c-46 0 -92 -4 -103
-9 -18 -8 -19 -9 -1 -9 13 -1 16 -6 12 -17 -5 -13 -3 -14 7 -6 13 11 17 -2 21
-70 0 -14 5 -24 9 -21 5 3 6 20 3 37 -5 27 -4 29 6 11 17 -28 20 -53 8 -75 -7
-13 -7 -21 2 -26 6 -4 9 -3 6 2 -3 5 1 23 8 39 l13 30 -1 -30 c-1 -16 5 -62
15 -102 9 -40 17 -77 17 -83 0 -9 -20 -10 -67 -6 -43 4 -74 3 -83 -4 -11 -8
-2 -9 35 -6 39 4 44 3 25 -4 -19 -7 -12 -9 30 -5 51 4 56 3 57 -16 2 -18 0
-19 -15 -7 -13 9 -12 7 2 -10 21 -24 32 -29 20 -10 -5 9 -2 8 9 -1 13 -10 15
-17 6 -27 -14 -17 -23 -18 -13 -1 4 6 -2 3 -14 -7 -25 -22 -30 -35 -6 -15 15
12 16 10 12 -21 -3 -19 -8 -44 -12 -55 -5 -11 -4 -16 1 -10 13 16 43 17 43 2
0 -7 -6 -19 -12 -26 -11 -11 -10 -12 0 -6 7 4 17 17 22 29 6 14 9 16 9 5 1
-21 -44 -63 -58 -54 -6 3 -9 10 -6 15 3 4 -2 13 -10 20 -15 12 -16 11 -19 -12
0 -6 -7 -13 -15 -16 -9 -3 -11 0 -6 9 5 8 4 11 -1 6 -5 -5 -9 -14 -9 -19 0 -6
-6 -13 -14 -16 -9 -3 -11 0 -6 9 5 8 4 11 -1 6 -5 -5 -9 -14 -9 -20 0 -7 -18
-13 -45 -13 l-45 -2 40 8 40 7 -36 2 c-31 1 -38 5 -43 26 -4 14 -4 29 -2 34 3
4 -11 13 -30 20 -38 14 -39 17 -21 88 12 46 12 53 -4 75 l-18 23 6 -24 c4 -16
3 -22 -5 -17 -8 4 -8 -3 -1 -26 5 -18 9 -42 8 -53 0 -19 -1 -19 -8 -1 -5 14
-10 5 -19 -34 -7 -28 -12 -60 -12 -70 0 -12 -12 -21 -42 -28 -42 -11 -63 -8
-53 8 3 4 -3 14 -13 21 -15 13 -16 12 -3 -4 22 -28 -3 -19 -33 12 -27 28 -28
30 -16 86 6 31 14 55 16 52 2 -2 -1 -28 -7 -57 -10 -46 -9 -54 7 -69 17 -15
17 -15 5 1 -10 13 -9 31 2 92 12 62 12 78 1 87 -7 6 -10 18 -7 27 4 15 3 15
-7 2 -9 -12 -11 -7 -8 23 2 20 0 37 -4 37 -11 0 -10 -77 1 -82 4 -1 3 -19 -4
-38 -15 -41 -13 -45 -51 118 l-28 122 60 63 c32 34 43 48 24 32 l-35 -30 37
39 c31 34 39 38 52 27 9 -8 16 -20 16 -27 0 -8 6 -11 17 -7 12 5 14 3 9 -8 -4
-8 3 -2 16 14 20 22 33 27 73 28 l50 2 -60 7 c-82 11 -206 10 -230 0 l-20 -9
20 -1 c11 -2 23 -2 28 -1 11 2 9 -7 -9 -34 -9 -13 -12 -30 -8 -37 5 -10 4 -10
-5 -2 -10 9 -10 17 -1 34 6 12 10 24 7 26 -5 5 -38 -72 -35 -84 0 -4 -2 -15
-7 -25 -4 -10 4 -62 20 -128 15 -60 26 -112 23 -114 -8 -8 -60 225 -54 241 3
8 1 36 -4 61 -8 34 -8 49 1 57 9 8 10 7 4 -4 -5 -8 -4 -11 0 -7 17 15 13 37
-5 37 -17 0 -18 -18 -19 -320z m232 285 c-3 -9 -8 -14 -10 -11 -3 3 -2 9 2 15
9 16 15 13 8 -4z m-163 -69 c0 -3 -4 -8 -10 -11 -5 -3 -10 -1 -10 4 0 6 5 11
10 11 6 0 10 -2 10 -4z m516 -147 c7 -30 13 -61 13 -69 0 -8 -6 5 -13 30 -23
82 -28 105 -21 99 3 -4 13 -31 21 -60z m-441 -118 c3 -5 1 -12 -5 -16 -5 -3
-10 1 -10 9 0 18 6 21 15 7z m188 -31 c-3 -12 -8 -19 -11 -16 -5 6 5 36 12 36
2 0 2 -9 -1 -20z m263 -112 c-15 -10 -16 -6 -9 22 6 22 7 22 13 4 4 -10 2 -22
-4 -26z m-296 -28 l-11 -25 6 25 c2 14 5 34 6 45 2 19 2 19 6 0 2 -12 -1 -32
-7 -45z m79 -50 c0 -10 -3 -8 -9 5 -12 27 -12 43 0 25 5 -8 9 -22 9 -30z"/>
<path d="M364 626 c1 -8 7 -20 14 -28 8 -11 8 -26 -2 -66 -8 -29 -10 -52 -5
-52 10 0 0 -88 -13 -110 -8 -14 -3 42 9 83 2 9 0 17 -6 17 -6 0 -11 6 -11 14
0 8 -10 32 -22 53 l-22 37 -10 -33 c-7 -25 -20 -38 -53 -54 -28 -14 -42 -26
-38 -35 3 -7 5 -17 5 -22 0 -4 10 -6 22 -2 21 5 21 6 2 14 -15 7 -14 7 6 3 14
-2 33 -5 43 -5 12 0 16 -5 11 -12 -4 -7 3 -3 15 10 12 12 27 22 33 22 7 0 3
-7 -8 -15 -18 -14 -18 -15 0 -8 17 6 18 3 10 -43 -11 -65 -10 -114 3 -122 5
-4 13 -14 16 -22 4 -12 6 -12 6 2 1 9 -3 20 -9 23 -17 11 -11 31 13 44 14 7
15 10 3 6 -16 -5 -17 -1 -12 22 4 16 11 48 16 73 6 25 14 65 20 90 6 25 13 60
15 79 3 19 8 38 11 42 3 5 -10 9 -30 9 -24 0 -34 -4 -32 -14z m39 -19 c4 3 7
1 7 -5 0 -17 -16 -15 -31 6 -12 15 -12 16 2 5 9 -7 19 -10 22 -6z m-6 -59 c-3
-8 -6 -5 -6 6 -1 11 2 17 5 13 3 -3 4 -12 1 -19z m-69 -29 c19 -30 11 -32 -11
-3 -10 13 -14 24 -10 24 5 0 14 -9 21 -21z m59 -26 c-3 -10 -5 -4 -5 12 0 17
2 24 5 18 2 -7 2 -21 0 -30z m-40 -175 c-3 -8 -6 -5 -6 6 -1 11 2 17 5 13 3
-3 4 -12 1 -19z"/>
<path d="M175 578 c1 -15 -3 -30 -9 -32 -8 -3 -7 -5 0 -5 6 -1 18 7 25 16 8
10 9 14 2 10 -7 -5 -13 1 -16 15 -3 16 -4 15 -2 -4z"/>
<path d="M441 556 c-14 -15 -19 -26 -12 -31 6 -3 11 -1 11 6 0 7 7 21 17 31
24 27 10 22 -16 -6z"/>
<path d="M240 505 c-14 -8 -20 -14 -15 -14 6 0 21 6 35 14 14 8 21 14 15 14
-5 0 -21 -6 -35 -14z"/>
<path d="M167 436 c-10 -30 -16 -68 -15 -85 2 -34 10 -33 14 2 2 12 7 47 13
76 6 30 9 56 7 58 -1 1 -10 -22 -19 -51z"/>
<path d="M401 404 c0 -11 3 -14 6 -6 3 7 2 16 -1 19 -3 4 -6 -2 -5 -13z"/>
<path d="M496 385 c9 -39 14 -44 15 -14 0 22 1 23 10 4 7 -17 8 -17 6 -2 -1
10 -6 17 -11 17 -5 -1 -13 4 -18 12 -5 8 -6 2 -2 -17z"/>
<path d="M390 310 c-13 -9 -13 -10 0 -10 8 0 22 5 30 10 13 9 13 10 0 10 -8 0
-22 -5 -30 -10z"/>
<path d="M255 301 c-3 -5 -1 -12 5 -16 5 -3 11 -18 11 -33 1 -18 3 -21 6 -9 3
10 1 26 -3 35 -4 9 -6 20 -6 25 3 10 -6 9 -13 -2z"/>
<path d="M204 278 l-19 -23 23 19 c21 18 27 26 19 26 -2 0 -12 -10 -23 -22z"/>
<path d="M441 236 c-10 -12 -8 -14 13 -12 15 2 26 -1 26 -7 0 -6 3 -8 6 -4 3
3 1 14 -5 24 -6 10 -11 12 -11 6 0 -7 -5 -13 -11 -13 -5 0 -7 5 -4 10 9 15 -1
12 -14 -4z"/>
<path d="M172 200 c0 -19 2 -27 5 -17 2 9 2 25 0 35 -3 9 -5 1 -5 -18z"/>
<path d="M192 176 c-1 -22 1 -36 5 -30 12 17 63 27 63 12 0 -9 3 -8 10 2 11
17 14 41 2 24 -5 -7 -18 -8 -41 -2 -23 6 -30 12 -22 17 10 7 10 9 -1 14 -11 4
-15 -6 -16 -37z"/>
<path d="M263 209 c-18 -5 -33 -12 -33 -14 0 -11 37 -4 56 10 22 16 21 17 -23
4z"/>
<path d="M386 188 c3 -5 10 -6 15 -3 13 9 11 12 -6 12 -8 0 -12 -4 -9 -9z"/>
<path d="M515 133 c-22 -19 -31 -31 -20 -25 19 9 74 63 64 62 -2 -1 -22 -17
-44 -37z"/>
<path d="M218 143 c6 -2 18 -2 25 0 6 3 1 5 -13 5 -14 0 -19 -2 -12 -5z"/>
<path d="M334 142 c12 -21 79 -32 118 -21 21 5 40 14 42 18 3 5 -11 3 -32 -5
-37 -12 -92 -8 -122 11 -9 5 -11 4 -6 -3z"/>
<path d="M425 100 c-28 -7 -28 -8 -5 -9 14 0 32 4 40 9 17 11 8 11 -35 0z"/>
<path d="M235 73 c-11 -3 -24 -9 -29 -14 -5 -5 5 -4 24 1 51 15 55 25 5 13z"/>
</g>
</svg>
