<svg xmlns="http://www.w3.org/2000/svg" viewBox="0 0 620 820" role="img" aria-label="Full fighter placeholder">
  <defs>
    <linearGradient id="bg" x1="0" y1="0" x2="1" y2="1">
      <stop offset="0" stop-color="#11182d"/>
      <stop offset="0.55" stop-color="#080b13"/>
      <stop offset="1" stop-color="#ff4655"/>
    </linearGradient>
    <radialGradient id="flare" cx="52%" cy="22%" r="70%">
      <stop offset="0" stop-color="#ffbd59" stop-opacity="0.5"/>
      <stop offset="1" stop-color="#ffbd59" stop-opacity="0"/>
    </radialGradient>
  </defs>
  <rect width="620" height="820" fill="url(#bg)"/>
  <rect width="620" height="820" fill="url(#flare)"/>
  <path d="M120 792c28-180 87-284 190-284s162 104 190 284" fill="#0b1020" opacity="0.82"/>
  <path d="M180 485c16-112 60-171 130-171s114 59 130 171c-75 47-169 47-260 0Z" fill="#0b1020" opacity="0.84"/>
  <circle cx="310" cy="238" r="98" fill="#0b1020" opacity="0.88"/>
  <path d="M167 172c72-86 213-108 291-6-55-20-96-14-130 17-43-20-95-23-161-11Z" fill="#ffbd59" opacity="0.88"/>
  <path d="M115 675h390" stroke="#ff4655" stroke-width="16" stroke-linecap="round" opacity="0.7"/>
  <text x="310" y="92" text-anchor="middle" font-family="Arial, Helvetica, sans-serif" font-size="45" font-weight="900" fill="#fff" letter-spacing="4">FULL ART</text>
  <text x="310" y="132" text-anchor="middle" font-family="Arial, Helvetica, sans-serif" font-size="16" font-weight="700" fill="#c8d3ed" letter-spacing="5">PLACEHOLDER</text>
</svg>
